<svg width="50" height="51" viewBox="0 0 50 51" fill="none" xmlns="http://www.w3.org/2000/svg">
<path fill-rule="evenodd" clip-rule="evenodd" d="M23.5714 28.6629C23.5714 27.9487 23.5714 27.9487 24.2857 27.2344C24.2857 26.5201 25.7143 26.5201 25.7143 28.6629V30.8058H23.5714V28.6629ZM25 0.0915222C25.7143 0.0915222 25.7143 0.0915222 27.1429 0.805808C29.2857 2.23438 32.1429 2.94867 35 4.37724C36.4286 5.09152 38.5714 5.80581 37.8571 7.23438C37.1429 7.23438 36.4286 7.23438 35.7143 7.23438V11.5201H45C45 11.5201 45.7143 12.2344 46.4286 12.9487L50 16.5201C50 16.5201 50 16.5201 50 17.2344C50 18.663 49.2857 18.663 47.8571 18.663V29.3772L47.1429 30.0915H35.7143C35.7143 30.8058 36.4286 32.9487 35 32.9487H15C14.2857 32.9487 14.2857 30.8058 14.2857 30.0915H3.57143C2.85714 30.0915 2.85714 29.3772 2.85714 29.3772V18.663C1.42857 18.663 0 18.663 0 17.2344C0 16.5201 0 16.5201 0.714286 16.5201C1.42857 15.8058 5 11.5201 5 11.5201H14.2857V7.23438C13.5714 7.23438 12.1429 7.94866 12.1429 6.52009C12.1429 5.80581 12.8571 5.80581 13.5714 5.09152L18.5714 2.94866C19.2857 2.23438 20.7143 2.23438 21.4286 1.52009C23.5714 0.805808 24.2857 0.0915222 25 0.0915222ZM35.7143 18.663H45.7143V27.9487H35.7143V18.663ZM4.28571 18.663H14.2857V27.9487H4.28571V18.663ZM21.4286 27.9487V30.8058H16.4286V7.23438H33.5714V30.8058H27.8571C27.8571 28.6629 28.5714 27.2344 27.1429 25.8058C25 23.663 21.4286 25.8058 21.4286 27.9487ZM35.7143 13.6629H44.2857C44.2857 13.6629 44.2857 13.6629 45 14.3772C45 14.3772 46.4286 15.8058 47.1429 16.5201H35.7143V13.6629ZM6.42857 13.6629H14.2857V16.5201H3.57143C3.57143 15.8058 5 14.3772 5.71429 13.6629C5.71429 13.6629 5.71429 13.6629 6.42857 13.6629ZM25 2.23438C25.7143 2.23438 29.2857 3.66295 29.2857 4.37724C30 4.37724 31.4286 5.09152 32.1429 5.09152C32.1429 5.09152 32.1429 5.09152 32.1429 5.80581H17.8571L18.5714 5.09152L21.4286 3.66295C22.1429 3.66295 22.1429 3.66295 22.1429 3.66295C22.8571 2.94866 25 2.23438 25 2.23438Z" fill="#26592B"/>
<path fill-rule="evenodd" clip-rule="evenodd" d="M44.2857 47.2344H47.8571C47.8571 47.9487 47.8571 47.9487 47.8571 47.9487H44.2857V47.2344ZM40.7143 39.3772H42.1429V47.9487H40.7143V39.3772ZM44.2857 42.9487H47.1429V43.663C47.1429 44.3772 47.1429 44.3772 47.1429 45.0915H44.2857V42.9487ZM44.2857 39.3772H46.4286C46.4286 39.3772 46.4286 39.3772 46.4286 40.0915V40.8058H44.2857V39.3772ZM40.7143 36.5201C40.7143 32.9487 45 34.3772 45.7143 34.3772C46.4286 35.0915 46.4286 36.5201 46.4286 37.2344H40.7143V36.5201ZM38.5714 37.2344C37.1429 37.2344 35 39.3772 33.5714 40.0915C32.1429 40.8058 31.4286 42.2344 30 43.663C29.2857 44.3772 27.1429 45.8058 26.4286 46.5201C22.8571 48.663 22.1429 47.9487 21.4286 48.663C20.7143 48.663 21.4286 50.0915 22.1429 50.0915H27.8571C28.5714 50.0915 29.2857 47.9487 27.1429 47.9487L33.5714 42.9487C34.2857 42.2344 35.7143 40.8058 36.4286 40.0915C37.1429 40.0915 37.8571 39.3772 38.5714 39.3772V47.9487C38.5714 48.663 37.8571 50.0915 39.2857 50.0915H49.2857C50 50.0915 50 49.3772 50 49.3772C50 48.6629 49.2857 45.0915 49.2857 44.3772L48.5714 37.9487C47.8571 37.2344 48.5714 35.8058 47.8571 34.3772C46.4286 31.5201 40.7143 31.5201 39.2857 33.6629C38.5714 34.3772 38.5714 35.8058 38.5714 37.2344Z" fill="#26592B"/>
<path fill-rule="evenodd" clip-rule="evenodd" d="M12.8571 45.8058H14.2857V47.2344H12.8571V45.8058ZM8.84386e-07 45.8058V45.0915C8.84386e-07 45.0915 0.714286 44.3772 2.14286 44.3772C5.71429 42.9487 5 42.9487 5.71429 44.3772C6.42857 44.3772 8.57143 43.663 9.28571 42.9487C10 42.9487 10 42.9487 10.7143 42.9487C10.7143 39.3772 10 39.3772 15 39.3772C15.7143 39.3772 16.4286 39.3772 16.4286 40.0915L17.8571 39.3772C18.5714 39.3772 19.2857 38.663 19.2857 38.663C19.2857 37.9487 19.2857 37.9487 19.2857 37.2344C19.2857 36.5201 20.7143 36.5201 21.4286 35.8058C25 35.0915 24.2857 34.3772 25.7143 38.663C26.4286 40.8058 25.7143 40.8058 24.2857 41.5201C22.8571 42.2344 20.7143 42.9487 20 40.8058L17.1429 42.2344C16.4286 42.2344 16.4286 42.2344 16.4286 42.2344V47.2344C18.5714 47.2344 17.8571 49.3772 16.4286 49.3772H10C8.57143 49.3772 8.57143 47.2344 10.7143 47.2344V45.0915C10 45.0915 10 45.0915 9.28571 45.0915L6.42857 46.5201C7.14286 48.663 7.85714 48.663 5 49.3772C2.85714 50.0915 2.14286 50.8058 1.42857 49.3772C1.42857 49.3772 0.714287 48.663 0.714287 47.9487C0.714287 47.2344 8.84386e-07 46.5201 8.84386e-07 45.8058ZM2.14286 45.8058C2.85714 45.8058 3.57143 45.8058 4.28572 45.8058C4.28572 45.8058 4.28571 47.2344 5 47.2344C4.28571 47.2344 3.57143 47.9487 2.85714 47.9487C2.85714 47.9487 2.85714 47.2344 2.14286 46.5201C2.14286 46.5201 2.14286 46.5201 2.14286 45.8058ZM12.8571 41.5201H14.2857V43.663H12.8571V41.5201ZM21.4286 37.9487C22.1429 37.9487 22.8571 37.9487 23.5714 37.2344C23.5714 37.9487 23.5714 39.3772 23.5714 39.3772C23.5714 39.3772 22.8571 40.0915 22.1429 40.0915L21.4286 37.9487Z" fill="#26592B"/>
<path fill-rule="evenodd" clip-rule="evenodd" d="M8.57143 22.2344H10.7143V24.3772H8.57143V22.2344ZM6.42857 20.8058V25.0915C6.42857 25.8058 7.14286 25.8058 7.14286 25.8058H11.4286C12.1429 25.8058 12.1429 25.8058 12.1429 25.0915V20.8058C12.1429 20.8058 12.1429 20.0915 11.4286 20.0915H7.14286L6.42857 20.8058Z" fill="#26592B"/>
<path fill-rule="evenodd" clip-rule="evenodd" d="M40 22.2344H41.4286V24.3772H40V22.2344ZM37.8571 20.8058V25.0915C37.8571 25.8058 38.5714 25.8058 38.5714 25.8058H42.8571C42.8571 25.8058 43.5714 25.8058 43.5714 25.0915V20.8058L42.8571 20.0915H38.5714L37.8571 20.8058Z" fill="#26592B"/>
<path fill-rule="evenodd" clip-rule="evenodd" d="M27.8571 19.3772H30V20.8058H27.8571V19.3772ZM25.7143 17.9487V22.2344C25.7143 22.9487 26.4286 22.9487 27.1429 22.9487H31.4286C31.4286 22.9487 32.1429 22.9487 32.1429 22.2344V17.9487L31.4286 17.2344H27.1429C26.4286 17.2344 25.7143 17.9487 25.7143 17.9487Z" fill="#26592B"/>
<path fill-rule="evenodd" clip-rule="evenodd" d="M20 19.3772H22.1429V20.8058H20V19.3772ZM18.5714 17.9487V22.2344C18.5714 22.9487 18.5714 22.9487 19.2857 22.9487H23.5714C23.5714 22.9487 24.2857 22.9487 24.2857 22.2344V17.9487L23.5714 17.2344H19.2857C18.5714 17.2344 18.5714 17.9487 18.5714 17.9487Z" fill="#26592B"/>
<path fill-rule="evenodd" clip-rule="evenodd" d="M27.8571 11.5201H30V13.663H27.8571V11.5201ZM25.7143 10.0915V14.3772C25.7143 15.0915 26.4286 15.0915 27.1429 15.0915H31.4286C31.4286 15.0915 32.1429 15.0915 32.1429 14.3772V10.0915L31.4286 9.37724H27.1429C26.4286 9.37724 25.7143 10.0915 25.7143 10.0915Z" fill="#26592B"/>
<path fill-rule="evenodd" clip-rule="evenodd" d="M20 11.5201H22.1429V13.663H20V11.5201ZM18.5714 10.0915V14.3772C18.5714 15.0915 18.5714 15.0915 19.2857 15.0915H23.5714C23.5714 15.0915 24.2857 15.0915 24.2857 14.3772V10.0915L23.5714 9.37724H19.2857C18.5714 9.37724 18.5714 10.0915 18.5714 10.0915Z" fill="#26592B"/>
<path fill-rule="evenodd" clip-rule="evenodd" d="M30.7143 49.3772C30.7143 49.3772 30.7143 50.0915 31.4286 50.0915C32.8571 50.0915 32.8571 47.9487 31.4286 47.9487C30.7143 47.9487 30.7143 48.6629 30.7143 49.3772Z" fill="#26592B"/>
</svg>
