<svg width="32" height="33" viewBox="0 0 32 33" fill="none" xmlns="http://www.w3.org/2000/svg">
<path d="M4.57736 23.8219L4.10536 27.225C4.07619 27.4362 4.09509 27.6516 4.16056 27.854C4.22602 28.0564 4.33627 28.2403 4.48257 28.3911C4.62886 28.542 4.8072 28.6557 5.00346 28.7232C5.19972 28.7907 5.40853 28.8102 5.61336 28.7801L8.91336 28.2934C9.41336 28.2205 10.6667 24.75 10.6667 24.75C10.6667 24.75 11.296 25.3069 11.5534 25.3907C12.1027 25.5695 12.6374 25.014 12.8174 24.4503L13.3334 22.0138C13.3334 22.0138 14.1027 22.4153 14.3814 22.4744C14.736 22.55 15.08 22.3245 15.324 22.0715C15.4706 21.9208 15.5807 21.7366 15.6454 21.5339L16 19.2638C16 19.2638 16.9 19.5209 17.208 19.558C17.5587 19.5993 17.9 19.415 18.1507 19.1551L19.668 17.5918C20.9524 18.021 22.3268 18.0763 23.6397 17.7517C24.9527 17.4271 26.1533 16.7351 27.1094 15.752C28.4823 14.3325 29.2533 12.4095 29.2533 10.4046C29.2533 8.39977 28.4823 6.47673 27.1094 5.05725C25.7329 3.64143 23.8681 2.84634 21.924 2.84634C19.9799 2.84634 18.1152 3.64143 16.7387 5.05725C15.7851 6.04302 15.1139 7.28116 14.7991 8.6352C14.4844 9.98924 14.5382 11.4066 14.9547 12.7311L4.95336 23.0436C4.74922 23.2539 4.6172 23.5272 4.57736 23.8219ZM24.672 7.57075C25.3994 8.32311 25.8079 9.3422 25.8079 10.4046C25.8079 11.4671 25.3994 12.4861 24.672 13.2385L19.176 7.57075C19.9056 6.82061 20.8938 6.39937 21.924 6.39937C22.9543 6.39937 23.9425 6.82061 24.672 7.57075Z" fill="white"/>
</svg>
