<svg width="20" height="20" viewBox="0 0 20 20" fill="none" xmlns="http://www.w3.org/2000/svg">
<g clip-path="url(#clip0_4_9)">
<path d="M19.3755 16.5908L16.6967 19.2481C16.3012 19.6537 15.7771 19.791 15.2667 19.7917C13.0093 19.724 10.8756 18.6152 9.12363 17.4766C6.24795 15.3845 3.60939 12.7905 1.95338 9.65566C1.31824 8.34113 0.573 6.66389 0.644202 5.19663C0.650552 4.64468 0.79929 4.10297 1.18801 3.7472L3.86679 1.06977C4.42305 0.596619 4.96099 0.760209 5.31695 1.31134L7.47204 5.39795C7.69887 5.88209 7.56875 6.40082 7.23033 6.74676L6.24341 7.73318C6.18248 7.81663 6.14369 7.91163 6.14271 8.01503C6.52116 9.47996 7.66766 10.8302 8.68049 11.7594C9.6933 12.6886 10.782 13.9475 12.1951 14.2456C12.3698 14.2943 12.5838 14.3114 12.7087 14.1952L13.8568 13.0276C14.2526 12.7277 14.824 12.581 15.2465 12.8263H15.2667L19.1539 15.1212C19.7245 15.479 19.784 16.1702 19.3755 16.5908Z" fill="#357731"/>
</g>
<defs>
<clipPath id="clip0_4_9">
<rect width="19" height="19" fill="white" transform="translate(0.639648 0.791504)"/>
</clipPath>
</defs>
</svg>
